<svg xmlns="http://www.w3.org/2000/svg" width="493.71" height="384" viewBox="0 0 493.71 384"><path d="M367.48,256.44v19.68a102.22,102.22,0,0,1,27.37,66c2,58.46-50,106.34-108.45,106.34H200.73c-95.43,0-174.6-69.63-189.48-160.86-2.68-16.39,10.68-31.14,27.3-31.14H79.83c0-1.19-.36-2.28-.36-3.48a24,24,0,0,1,38.85-18.8c17.28,13.64,38,22.28,60,22.28h52.05v-96a96,96,0,0,1,96-96,101.3,101.3,0,0,1,23.21,2.72c34.67,8.13,62.61,36.57,70.34,71.32.63,2.79.73,5.49,1.11,8.24h83.63c0,60.59-62.84,109.72-123.43,109.72Z" transform="translate(-10.91 -64.44)" style="fill:#ffd52c"/><path d="M326.33,146.72a13.72,13.72,0,1,0,13.72,13.72A13.71,13.71,0,0,0,326.33,146.72Zm0,0a13.72,13.72,0,1,0,13.72,13.72A13.71,13.71,0,0,0,326.33,146.72Zm54.86,109.72c60.59,0,123.43-49.13,123.43-109.72H421c-.38-2.75-.48-5.45-1.11-8.24-7.73-34.75-35.67-63.19-70.34-71.32a101.3,101.3,0,0,0-23.21-2.72,96,96,0,0,0-96,96v96H178.28c-22,0-42.68-8.64-60-22.28A24,24,0,0,0,79.47,253c0,1.2.32,2.29.36,3.48H38.55c-16.62,0-30,14.75-27.3,31.14,14.88,91.23,94.05,160.86,189.48,160.86H286.4c58.49,0,110.44-47.88,108.45-106.34a102.22,102.22,0,0,0-27.37-66V256.44Zm40.05-82.29h51.25c-9.93,28-48.34,49.07-78.4,53.83A95,95,0,0,0,421.24,174.15ZM347.3,294.7A75.4,75.4,0,0,1,367.43,343c.64,19-6.81,37.57-21,52.26a84.07,84.07,0,0,1-60,25.73H200.73c-81.4,0-149.18-59.41-162.28-137.15H83.73c13.89,55,63.38,96,122.64,96h17.1a6.85,6.85,0,0,0,6.86-6.85V359.29a6.85,6.85,0,0,0-6.86-6.85h-17.1a99.59,99.59,0,0,1-99.14-91.37c18.22,15.13,42.08,22.79,71,22.79h79.49V160.44a68.57,68.57,0,1,1,93.64,63.68c-11,5.25-9.95,4.75-11.35,5.43v57.28Zm-21-148a13.72,13.72,0,1,0,13.72,13.72A13.71,13.71,0,0,0,326.33,146.72Z" transform="translate(-10.91 -64.44)" style="fill:#201e1e"/></svg>